<!-- Generated by IcoMoon.io -->
<svg version="1.1" xmlns="http://www.w3.org/2000/svg" width="2389" height="1024" viewBox="0 0 2389 1024">
<g id="icomoon-ignore">
</g>
<path fill="#33adc1" d="M773.591 512.004c0 186.135-150.889 337.024-337.024 337.024-6.989 0-13.922-0.205-20.798-0.631-28.834-1.749-56.702-7.138-83.13-15.712-10.054-3.245-19.906-6.972-29.519-11.113-119.766-51.682-203.579-170.837-203.579-309.568 0-186.135 150.888-337.025 337.026-337.025 186.135 0 337.024 150.89 337.024 337.025z"></path>
<path fill="#eae0d3" d="M415.782 848.39c-39.814-2.423-77.751-11.761-112.649-26.825 130.515-175.953-95.425-343.546-95.425-343.546l113.913-28.113c0-0.006 243.799 148.713 94.161 398.483z"></path>
<path fill="#d6c8b0" d="M332.653 832.685c-10.054-3.245-19.906-6.974-29.519-11.113 130.515-175.953-95.425-343.546-95.425-343.546l32.927-8.13c7.983 5.969 19.151 13.741 30.554 24.401 59.426 55.509 145.636 173.634 61.463 338.387z"></path>
<path fill="#eae0d3" d="M402.933 362.545c0 72.768-58.985 131.753-131.757 131.753-72.769 0-131.754-58.985-131.754-131.753 0-10.867 1.306-21.419 3.795-31.52 2.474-10.095 6.12-19.735 10.769-28.762l-54.445-54.445 89.224 11.925-45.769-56.743 104.63 29.878-11.405-57.9c0 0 91.023 50.346 134.272 100.985 3.277 3.755 6.332 7.703 9.175 11.819 14.667 21.237 23.264 46.987 23.264 74.763z"></path>
<path fill="#2f373b" d="M341.993 335.644c0 17.82-14.445 32.271-32.265 32.271-17.824 0-32.269-14.451-32.269-32.271 0-17.824 14.445-32.269 32.269-32.269 17.82 0 32.265 14.445 32.265 32.269z"></path>
<path fill="#ff648d" d="M644.465 356.937c-13.246 6.923-27.209 5.353-38.419 1.634-13.109-4.329-22.438-11.565-22.438-11.565s-47.183-46.319-10.88-66.483c10.963-6.078 19.84-6.052 26.88-3.029h0.015c16.303 6.989 22.848 29.92 22.848 29.92s13.139-34.069 42.206-23.755c29.050 10.302 8.501 58.272-20.211 73.278z"></path>
<path fill="#ea2f69" d="M606.046 358.571c-13.109-4.329-22.438-11.565-22.438-11.565s-47.183-46.319-10.88-66.483c10.963-6.078 19.84-6.052 26.88-3.029-16.066-0.905-16.576 58.302 6.438 81.077z"></path>
<path fill="#fff" d="M332.836 325.35c0 5.57-4.516 10.084-10.084 10.084-5.57 0-10.086-4.514-10.086-10.084 0-5.564 4.516-10.080 10.086-10.080 5.568 0 10.084 4.516 10.084 10.080z"></path>
<path fill="#ff648d" d="M595.392 372.542c0 49.152-133.783 198.391-46.391 260.235 21.845 15.465 45.961 20.503 69.847 19.373 23.883 1.137 47.996-3.908 69.847-19.373 87.388-61.843-46.398-211.083-46.398-260.235z"></path>
<path fill="#ea2f69" d="M615.232 652.258c-22.709 0.493-45.491-4.798-66.231-19.482-87.394-61.843 46.396-211.087 46.396-260.235h14.338c0 49.148-51.987 198.391-18.025 260.235 7.39 13.453 15.447 19.029 23.522 19.482z"></path>
<path fill="#ea2f69" d="M615.209 652.265c1.199-0.011 2.396-0.058 3.595-0.109-1.199 0.149-2.396 0.19-3.595 0.109z"></path>
<path fill="#ea2f69" d="M622.464 652.265c-1.197 0.081-2.391 0.041-3.588-0.109 1.197 0.051 2.391 0.098 3.588 0.109z"></path>
<path fill="#ffd62c" d="M706.816 363.891l-333.429 55.117c0 0-11.637-17.649-15.876-41.047-3.767-20.864-1.649-46.304 19.908-67.857l329.397 53.788z"></path>
<path fill="#ffb92e" d="M706.805 363.895l-333.429 55.119c0 0-11.639-17.649-15.876-41.047l349.306-14.071z"></path>
<path fill="#d6c8b0" d="M271.177 494.298c-72.769 0-131.754-58.987-131.754-131.755 0-10.865 1.306-21.419 3.795-31.518 2.474-10.095 6.12-19.738 10.769-28.764l-54.445-54.443 89.224 11.925-45.769-56.744 106.668 60.044c0 0-65.882 24.211-65.882 100.847s87.394 130.406 87.394 130.406z"></path>
<path fill="#000" d="M2152.555 658.701c-18.197 0-34.513-4.484-48.964-13.453-14.449-9.22-25.911-21.553-34.383-37.001-8.222-15.697-12.333-33.387-12.333-53.069 0-19.684 4.484-37.374 13.455-53.071 9.218-15.695 21.551-28.030 36.998-36.998 15.697-9.218 33.259-13.828 52.693-13.828s36.885 4.61 52.331 13.828c15.445 8.969 27.648 21.303 36.629 36.998 9.216 15.697 13.824 33.387 13.824 53.071h-14.571c0 19.682-4.245 37.372-12.715 53.069-8.213 15.447-19.563 27.78-34.005 37.001-14.464 8.969-30.784 13.453-48.96 13.453zM2160.021 625.067c12.715 0 24.043-2.991 34.005-8.971 9.984-6.229 17.813-14.575 23.552-25.039 5.739-10.714 8.597-22.673 8.597-35.878 0-13.455-2.859-25.414-8.597-35.878-5.739-10.714-13.568-19.061-23.552-25.041-9.963-6.227-21.291-9.342-34.005-9.342-12.459 0-23.787 3.115-34.005 9.342-9.967 5.98-17.939 14.327-23.919 25.041-5.732 10.464-8.597 22.423-8.597 35.878 0 13.205 2.865 25.165 8.597 35.878 5.98 10.464 13.952 18.81 23.919 25.039 10.219 5.98 21.547 8.971 34.005 8.971zM2243.733 657.581c-5.483 0-10.091-1.745-13.824-5.233-3.477-3.738-5.227-8.346-5.227-13.828v-57.18l7.104-39.616 31.019 13.455v83.341c0 5.483-1.877 10.091-5.611 13.828-3.499 3.488-7.979 5.233-13.461 5.233z"></path>
<path fill="#000" d="M2029.562 652.719c-3.238 2.991-7.849 4.484-13.828 4.484-5.73-0.247-10.214-1.993-13.455-5.231l-90.816-97.545 85.585-95.674c3.238-3.49 7.723-5.483 13.453-5.98 5.98-0.499 10.59 0.747 13.828 3.735 3.738 3.488 5.856 7.475 6.353 11.959 0.499 4.237-0.87 8.098-4.111 11.586l-67.644 72.503 71.755 76.99c3.241 3.238 4.86 7.1 4.86 11.584 0 4.237-1.993 8.098-5.98 11.586zM1881.564 657.579c-5.481 0-9.841-1.745-13.079-5.233-3.241-3.738-4.86-8.348-4.86-13.828v-166.684c0-5.73 1.619-10.34 4.86-13.828 3.238-3.488 7.599-5.231 13.079-5.231 5.73 0 10.34 1.743 13.828 5.231 3.738 3.488 5.606 8.098 5.606 13.828v62.413h47.838v35.132h-47.838v69.139c0 5.481-1.869 10.091-5.606 13.828-3.488 3.488-8.098 5.233-13.828 5.233z"></path>
<path fill="#000" d="M1723.806 658.701c-20.681 0-39.119-4.358-55.313-13.079-15.947-8.971-28.529-21.178-37.747-36.625-8.969-15.697-13.455-33.636-13.455-53.818 0-20.431 4.237-38.37 12.708-53.818 8.719-15.697 20.678-27.906 35.878-36.625 15.198-8.971 32.638-13.455 52.322-13.455 19.433 0 36.126 4.361 50.080 13.082 13.952 8.469 24.542 20.305 31.765 35.503 7.475 14.95 11.213 32.267 11.213 51.949 0 4.734-1.619 8.721-4.858 11.959-3.241 2.991-7.351 4.484-12.333 4.484h-150.615v-29.899h149.493l-15.324 10.466c-0.247-12.459-2.739-23.546-7.473-33.263-4.734-9.967-11.462-17.813-20.181-23.546-8.721-5.73-19.311-8.595-31.767-8.595-14.202 0-26.411 3.115-36.625 9.344-9.967 6.229-17.566 14.825-22.799 25.788-5.231 10.714-7.849 22.921-7.849 36.625 0 13.702 3.115 25.911 9.344 36.625s14.825 19.185 25.788 25.414c10.963 6.229 23.543 9.342 37.747 9.342 7.723 0 15.571-1.37 23.543-4.111 8.222-2.989 14.825-6.353 19.808-10.091 3.738-2.739 7.725-4.111 11.959-4.111 4.484-0.25 8.348 0.996 11.586 3.738 4.235 3.738 6.477 7.849 6.726 12.333 0.25 4.486-1.743 8.348-5.98 11.586-8.471 6.726-19.059 12.209-31.767 16.444-12.457 4.237-24.416 6.353-35.876 6.353z"></path>
<path fill="#000" d="M1481.291 453.135c3.738 0 7.102 0.996 10.091 2.991 2.991 1.993 5.357 5.107 7.102 9.342l76.988 167.059c2.242 4.981 2.492 9.468 0.749 13.453-1.745 3.738-4.734 6.603-8.971 8.597-5.481 2.49-10.214 3.113-14.202 1.869-3.987-1.246-7.349-4.361-10.091-9.344l-70.261-159.584h19.061l-72.506 159.584c-2.242 4.734-5.604 7.849-10.091 9.344-4.235 1.244-8.969 0.621-14.202-1.869-4.734-2.244-8.096-5.233-10.091-8.971-1.743-3.738-1.37-8.098 1.122-13.079l77.361-167.059c3.738-8.222 9.717-12.333 17.939-12.333z"></path>
<path fill="#000" d="M1264.847 658.701c-20.681 0-39.117-4.358-55.313-13.079-15.945-8.971-28.527-21.178-37.747-36.625-8.969-15.697-13.453-33.636-13.453-53.818 0-20.431 4.235-38.37 12.706-53.818 8.721-15.697 20.681-27.906 35.878-36.625 15.198-8.971 32.64-13.455 52.322-13.455 19.435 0 36.128 4.361 50.080 13.082 13.952 8.469 24.542 20.305 31.767 35.503 7.475 14.95 11.211 32.267 11.211 51.949 0 4.734-1.619 8.721-4.858 11.959-3.238 2.991-7.349 4.484-12.333 4.484h-150.613v-29.899h149.491l-15.322 10.466c-0.25-12.459-2.741-23.546-7.475-33.263-4.734-9.967-11.46-17.813-20.181-23.546-8.721-5.73-19.309-8.595-31.767-8.595-14.202 0-26.411 3.115-36.625 9.344-9.967 6.229-17.566 14.825-22.799 25.788-5.231 10.714-7.846 22.921-7.846 36.625 0 13.702 3.113 25.911 9.342 36.625s14.825 19.185 25.788 25.414c10.963 6.229 23.546 9.342 37.747 9.342 7.723 0 15.571-1.37 23.546-4.111 8.222-2.989 14.825-6.353 19.806-10.091 3.738-2.739 7.725-4.111 11.959-4.111 4.486-0.25 8.348 0.996 11.586 3.738 4.237 3.738 6.479 7.849 6.726 12.333 0.25 4.486-1.743 8.348-5.98 11.586-8.469 6.726-19.059 12.209-31.765 16.444-12.459 4.237-24.418 6.353-35.878 6.353z"></path>
<path fill="#000" d="M899.561 657.207c-6.976 0-12.333-2.991-16.070-8.971s-4.111-12.333-1.122-19.059l105.018-250.773c3.738-8.721 9.843-13.082 18.315-13.082 8.969 0 15.072 4.361 18.313 13.082l105.391 251.52c2.741 6.976 2.368 13.329-1.12 19.059-3.241 5.483-8.471 8.224-15.697 8.224-3.738 0-7.351-0.998-10.839-2.991-3.238-2.242-5.604-5.233-7.1-8.969l-93.434-230.219h11.959l-95.674 230.219c-1.745 3.985-4.361 6.976-7.849 8.969-3.241 1.993-6.603 2.991-10.091 2.991z"></path>
</svg>
