<svg width="18" height="19" viewBox="0 0 18 19" fill="none" xmlns="http://www.w3.org/2000/svg">
<path d="M16.4666 1.23242C16.7252 1.23244 16.9051 1.31162 17.0466 1.45312C17.1878 1.59454 17.2663 1.77387 17.2664 2.03223C17.2664 2.29086 17.1881 2.47081 17.0466 2.6123L10.5125 9.14551L10.1589 9.49902L10.5125 9.85254L17.0466 16.3857C17.1881 16.5272 17.2664 16.7071 17.2664 16.9658C17.2663 17.2245 17.1881 17.4044 17.0466 17.5459C16.9051 17.6874 16.7252 17.7656 16.4666 17.7656C16.2079 17.7656 16.028 17.6874 15.8865 17.5459L9.35327 11.0117L8.99976 10.6582L8.64624 11.0117L2.11304 17.5459C1.97154 17.6873 1.79159 17.7656 1.53296 17.7656C1.27461 17.7656 1.09527 17.6871 0.953857 17.5459C0.812354 17.4044 0.733167 17.2245 0.733154 16.9658C0.733154 16.7071 0.812344 16.5273 0.953857 16.3857L7.84058 9.49902L0.953857 2.6123C0.812344 2.47079 0.733154 2.29094 0.733154 2.03223C0.733194 1.77362 0.812379 1.5946 0.953857 1.45312C1.09534 1.31165 1.27435 1.23246 1.53296 1.23242C1.79167 1.23242 1.97152 1.31161 2.11304 1.45312L8.99976 8.33984L15.8865 1.45312C16.028 1.31161 16.2078 1.23242 16.4666 1.23242Z" fill="black" stroke="black"/>
</svg>
