<svg xmlns="http://www.w3.org/2000/svg" aria-hidden="true" style="position:absolute;width:0;height:0;overflow:hidden">
  <defs>
    <symbol id="account_circle" viewBox="0 0 32 32">
      <path d="M7.432 23.413c1.395-.967 2.778-1.709 4.151-2.226s2.846-.775 4.421-.775c1.575 0 3.055.26 4.442.781s2.771 1.261 4.156 2.22c.967-1.205 1.653-2.407 2.056-3.605s.605-2.467.605-3.807c0-3.197-1.077-5.873-3.233-8.029s-4.831-3.233-8.028-3.233c-3.196 0-5.873 1.078-8.029 3.233s-3.234 4.832-3.234 8.029c0 1.34.206 2.608.618 3.805s1.104 2.399 2.076 3.608zm8.562-6.357c-1.301 0-2.395-.445-3.28-1.335s-1.328-1.984-1.328-3.282.445-2.391 1.334-3.28c.89-.888 1.985-1.333 3.287-1.333s2.395.446 3.28 1.339c.885.892 1.328 1.988 1.328 3.286s-.445 2.39-1.334 3.276c-.889.886-1.985 1.328-3.287 1.328zm.017 12.477c-1.856 0-3.607-.355-5.252-1.064s-3.084-1.68-4.315-2.911c-1.232-1.231-2.202-2.667-2.912-4.308s-1.064-3.393-1.064-5.259c0-1.859.355-3.608 1.066-5.245s1.681-3.071 2.911-4.301S9.11 4.244 10.751 3.53s3.394-1.07 5.26-1.07c1.859 0 3.608.357 5.245 1.07s3.071 1.685 4.301 2.915 2.201 2.664 2.915 4.303 1.07 3.386 1.07 5.242c0 1.856-.357 3.607-1.07 5.253s-1.685 3.084-2.915 4.314-2.664 2.2-4.303 2.911-3.386 1.066-5.242 1.066zM16 27.262c1.206 0 2.379-.173 3.52-.517s2.277-.954 3.41-1.827c-1.139-.795-2.281-1.396-3.427-1.805S17.189 22.5 16 22.5s-2.356.205-3.499.613c-1.143.409-2.284 1.011-3.423 1.805 1.133.873 2.269 1.482 3.406 1.827s2.309.517 3.516.517zm0-12.302c.739 0 1.343-.233 1.814-.701s.705-1.072.705-1.814-.235-1.348-.705-1.818-1.075-.705-1.814-.705-1.343.235-1.814.705c-.47.47-.705 1.076-.705 1.818s.235 1.347.705 1.814c.47.467 1.075.701 1.814.701z"/>
    </symbol>
    <symbol id="book" viewBox="0 0 32 32">
      <path d="M7.348 21.27c.316-.202.659-.356 1.03-.461s.768-.158 1.192-.158h1.112V4.675H9.57c-.624 0-1.151.216-1.579.647s-.643.959-.643 1.583V21.27zm5.548-.619h11.761V4.675H12.896v15.976zM9.57 29.533c-1.228 0-2.275-.432-3.14-1.297s-1.297-1.911-1.297-3.14V6.905c0-1.23.432-2.279 1.297-3.145s1.911-1.3 3.14-1.3h15.024c.632 0 1.17.222 1.614.665s.665.981.665 1.614v17.246c0 .217-.056.414-.167.591s-.253.301-.427.373c-.406.168-.725.442-.956.822s-.347.818-.347 1.315.115.934.345 1.311c.23.377.548.648.954.812.192.084.34.229.443.437s.155.46.155.756v.037c0 .303-.107.56-.322.774s-.478.32-.789.32H9.571zm-.016-2.215h13.8a4.447 4.447 0 0 1-.593-2.221c0-.424.053-.821.158-1.192s.262-.717.469-1.039H9.557c-.61 0-1.131.216-1.562.647s-.647.959-.647 1.583c0 .619.216 1.144.647 1.575s.951.647 1.56.647z"/>
    </symbol>
    <symbol id="conversion_path" viewBox="0 0 32 32">
      <path d="M25.534 28.183c-.97 0-1.807-.288-2.511-.864s-1.148-1.267-1.331-2.071h-6.925c-1.484 0-2.713-.487-3.687-1.462s-1.461-2.205-1.461-3.69c0-1.48.487-2.707 1.461-3.682s2.203-1.462 3.687-1.462h2.567c.893 0 1.626-.286 2.196-.857s.856-1.303.856-2.197-.285-1.626-.856-2.196c-.571-.57-1.303-.855-2.196-.855h-7.017c-.211.804-.663 1.495-1.356 2.071s-1.525.864-2.494.864c-1.114 0-2.056-.385-2.827-1.156S2.484 8.913 2.484 7.799c0-1.114.385-2.057 1.156-2.827s1.713-1.156 2.827-1.156c.97 0 1.801.288 2.494.864s1.145 1.267 1.356 2.071h7.017c1.483 0 2.711.487 3.686 1.462s1.462 2.203 1.462 3.686-.487 2.711-1.462 3.686c-.975.974-2.203 1.462-3.686 1.462h-2.567c-.895 0-1.628.285-2.197.855s-.855 1.301-.855 2.193c0 .898.285 1.632.855 2.201s1.302.855 2.197.855h6.925c.205-.805.655-1.495 1.348-2.071s1.525-.864 2.494-.864c1.114 0 2.056.385 2.827 1.156s1.156 1.713 1.156 2.827c0 1.114-.385 2.057-1.156 2.827s-1.713 1.156-2.827 1.156zM6.468 9.6c.511 0 .939-.172 1.283-.517s.517-.772.517-1.283c0-.511-.172-.939-.517-1.283S6.979 6 6.468 6c-.511 0-.939.172-1.283.517s-.517.772-.517 1.283c0 .511.172.939.517 1.283s.772.517 1.283.517z"/>
    </symbol>
    <symbol id="logout" viewBox="0 0 32 32">
      <path d="M6.07 28.2c-.613 0-1.145-.225-1.595-.676s-.676-.982-.676-1.595V6.072c0-.616.225-1.149.676-1.601s.982-.678 1.595-.678h8.807c.32 0 .59.111.808.334s.327.495.327.816c0 .322-.109.59-.327.806s-.488.323-.808.323H6.07v19.857h8.807c.32 0 .59.11.808.329s.327.49.327.812c0 .322-.109.591-.327.806s-.488.323-.808.323H6.07zm17.785-11.064H13.087c-.32 0-.59-.11-.808-.329s-.327-.49-.327-.812c0-.322.109-.591.327-.806s.488-.323.808-.323h10.701l-2.564-2.564c-.227-.228-.334-.495-.323-.8s.13-.571.357-.795c.226-.229.496-.342.81-.34s.585.117.815.344l4.529 4.529c.221.228.332.494.332.797s-.111.568-.332.794l-4.496 4.496c-.222.227-.486.335-.792.327s-.577-.126-.812-.352c-.218-.227-.329-.497-.331-.811s.112-.585.344-.813l2.531-2.539z"/>
    </symbol>
    <symbol id="today" viewBox="0 0 32 32">
      <path d="M11.807 21.715c-.907 0-1.672-.313-2.294-.939s-.933-1.393-.933-2.3c0-.907.313-1.672.94-2.294s1.393-.933 2.3-.933c.907 0 1.671.313 2.294.94s.933 1.393.933 2.3c0 .907-.313 1.671-.939 2.294s-1.393.933-2.3.933zM6.07 29.533c-.613 0-1.145-.225-1.595-.676s-.676-.982-.676-1.595V6.739c0-.616.225-1.149.676-1.601s.982-.678 1.595-.678h2.095v-.862c0-.319.111-.588.332-.808s.491-.33.808-.33c.326 0 .602.11.826.33s.336.489.336.808v.862h11.062v-.862c0-.319.111-.588.332-.808s.491-.33.808-.33c.327 0 .602.11.826.33s.336.489.336.808v.862h2.095c.615 0 1.149.226 1.601.678s.678.985.678 1.601v20.523c0 .613-.226 1.145-.678 1.595s-.985.676-1.601.676H6.069zm0-2.271h19.857V13H6.07v14.262zM6.07 11h19.857V6.738H6.07V11z"/>
    </symbol>
  </defs>
</svg>