<svg width="30" height="30" viewBox="0 0 30 30" fill="none" xmlns="http://www.w3.org/2000/svg">
<g clip-path="url(#clip0_12127_23243)">
<path d="M29.9963 14.9991C29.9963 23.1789 23.3655 29.8098 15.1857 29.8098C14.8785 29.8098 14.5739 29.8008 14.2717 29.782C13.0046 29.7052 11.7799 29.4683 10.6186 29.0916C10.1768 28.949 9.74375 28.7851 9.32137 28.6032C4.05823 26.332 0.375 21.0957 0.375 14.9991C0.375 6.81933 7.00585 0.188477 15.1857 0.188477C23.3655 0.188477 29.9963 6.81933 29.9963 14.9991Z" fill="#33ADC1"/>
<path d="M14.2723 29.7825C12.5227 29.6761 10.8555 29.2656 9.32194 28.6037C15.0574 20.8714 5.12842 13.5065 5.12842 13.5065L6.57545 13.1492L10.1344 12.271C10.1344 12.2708 20.8482 18.8063 14.2723 29.7825Z" fill="#EAE0D3"/>
<path d="M10.6191 29.0928C10.1773 28.9502 9.74432 28.7863 9.32194 28.6044C15.0574 20.8721 5.12842 13.5072 5.12842 13.5072L6.57545 13.1499C6.92619 13.4123 7.41705 13.7538 7.91807 14.2222C10.5296 16.6616 14.3182 21.8527 10.6191 29.0928Z" fill="#D6C8B0"/>
<path d="M13.7077 8.43111C13.7077 11.6289 11.1155 14.221 7.91751 14.221C4.71971 14.221 2.12757 11.6289 2.12757 8.43111C2.12757 7.95359 2.18498 7.48985 2.29436 7.046C2.40306 6.60238 2.56329 6.17864 2.76759 5.78202L0.375 3.38944L4.29597 3.91352L2.28464 1.41991L6.88269 2.73293L6.38143 0.188477C6.38143 0.188477 10.3815 2.40095 12.2821 4.6263C12.4261 4.79127 12.5603 4.96483 12.6853 5.14563C13.3298 6.07898 13.7077 7.21052 13.7077 8.43111Z" fill="#EAE0D3"/>
<path d="M11.0284 7.24867C11.0284 8.03174 10.3936 8.66678 9.61049 8.66678C8.8272 8.66678 8.19238 8.03174 8.19238 7.24867C8.19238 6.46538 8.8272 5.83057 9.61049 5.83057C10.3936 5.83057 11.0284 6.46538 11.0284 7.24867Z" fill="#2F373B"/>
<path d="M24.3213 8.18617C23.7391 8.49035 23.1255 8.42143 22.6329 8.25803C22.0568 8.06775 21.6469 7.74978 21.6469 7.74978C21.6469 7.74978 19.5734 5.71426 21.1687 4.82814C21.6505 4.56102 22.0405 4.56215 22.3499 4.69503H22.3506C23.067 5.00216 23.3547 6.00986 23.3547 6.00986C23.3547 6.00986 23.9321 4.51266 25.2094 4.966C26.486 5.41866 25.583 7.52672 24.3213 8.18617Z" fill="#FF648D"/>
<path d="M22.6329 8.25803C22.0568 8.06775 21.6469 7.74978 21.6469 7.74978C21.6469 7.74978 19.5734 5.71426 21.1687 4.82814C21.6505 4.56102 22.0405 4.56215 22.3499 4.69503C21.6439 4.65526 21.6215 7.25711 22.6329 8.25803Z" fill="#EA2F69"/>
<path d="M10.6266 6.79597C10.6266 7.04072 10.4282 7.23914 10.1834 7.23914C9.93866 7.23914 9.74023 7.04072 9.74023 6.79597C9.74023 6.55145 9.93866 6.35303 10.1834 6.35303C10.4282 6.35303 10.6266 6.55145 10.6266 6.79597Z" fill="white"/>
<path d="M22.1653 8.87012C22.1653 11.0302 16.2861 17.5885 20.1266 20.3063C21.0867 20.9858 22.1463 21.2073 23.1961 21.1576C24.2456 21.2075 25.3053 20.9858 26.2655 20.3063C30.1058 17.5885 24.2266 11.0302 24.2266 8.87012" fill="#FF648D"/>
<path d="M23.0377 21.1633C22.0397 21.185 21.0385 20.9524 20.1271 20.3072C16.2866 17.5894 22.166 11.0309 22.166 8.87109H22.7961C22.7961 11.0309 20.5115 17.5894 22.004 20.3072C22.3287 20.8984 22.6828 21.1434 23.0377 21.1633Z" fill="#EA2F69"/>
<path d="M23.0366 21.1634C23.0893 21.163 23.1419 21.161 23.1946 21.1587C23.1419 21.1652 23.0893 21.1671 23.0366 21.1634Z" fill="#EA2F69"/>
<path d="M23.3555 21.1634C23.3028 21.1671 23.2504 21.1652 23.1978 21.1587C23.2504 21.161 23.3028 21.163 23.3555 21.1634Z" fill="#EA2F69"/>
<path d="M27.0613 8.48963L12.4086 10.9118C12.4086 10.9118 11.8972 10.1362 11.711 9.10795C11.5453 8.1911 11.6384 7.07311 12.5858 6.12598L27.0613 8.48963Z" fill="#FFD62C"/>
<path d="M27.0608 8.48926L12.4081 10.9114C12.4081 10.9114 11.8967 10.1358 11.7104 9.10757L27.0608 8.48926Z" fill="#FFB92E"/>
<path d="M7.91751 14.2201C4.71971 14.2201 2.12757 11.6279 2.12757 8.43014C2.12757 7.95262 2.18498 7.48888 2.29436 7.04503C2.40306 6.60141 2.56329 6.17767 2.76759 5.78106L0.375 3.38847L4.29597 3.91255L2.28464 1.41895L6.97218 4.05764C6.97218 4.05764 4.07699 5.12161 4.07699 8.48935C4.07699 11.8571 7.91751 14.2201 7.91751 14.2201Z" fill="#D6C8B0"/>
</g>
<defs>
<clipPath id="clip0_12127_23243">
<rect width="29.6213" height="29.6213" fill="white" transform="translate(0.375 0.189453)"/>
</clipPath>
</defs>
</svg>
