<svg width="96" height="30" viewBox="0 0 96 30" fill="none" xmlns="http://www.w3.org/2000/svg">
<g clip-path="url(#clip0_12245_4249)">
<path d="M29.9963 15.0001C29.9963 23.1799 23.3655 29.8108 15.1857 29.8108C14.8785 29.8108 14.5739 29.8017 14.2717 29.783C13.0046 29.7061 11.7799 29.4693 10.6186 29.0926C10.1768 28.95 9.74375 28.7861 9.32137 28.6042C4.05823 26.333 0.375 21.0967 0.375 15.0001C0.375 6.82031 7.00585 0.189453 15.1857 0.189453C23.3655 0.189453 29.9963 6.82031 29.9963 15.0001Z" fill="#33ADC1"/>
<path d="M14.2718 29.783C12.5222 29.6765 10.855 29.2661 9.32145 28.6042C15.0569 20.8719 5.12793 13.507 5.12793 13.507L6.57496 13.1497L10.1339 12.2715C10.1339 12.2713 20.8478 18.8067 14.2718 29.783Z" fill="#EAE0D3"/>
<path d="M10.6186 29.0923C10.1768 28.9497 9.74383 28.7859 9.32145 28.6039C15.0569 20.8716 5.12793 13.5067 5.12793 13.5067L6.57496 13.1494C6.9257 13.4118 7.41656 13.7533 7.91758 14.2217C10.5292 16.6611 14.3177 21.8522 10.6186 29.0923Z" fill="#D6C8B0"/>
<path d="M13.7077 8.43209C13.7077 11.6299 11.1155 14.222 7.91751 14.222C4.71971 14.222 2.12757 11.6299 2.12757 8.43209C2.12757 7.95456 2.18498 7.49083 2.29436 7.04698C2.40306 6.60335 2.56329 6.17962 2.76759 5.783L0.375 3.39041L4.29597 3.91449L2.28464 1.42089L6.88269 2.73391L6.38143 0.189453C6.38143 0.189453 10.3815 2.40192 12.2821 4.62727C12.4261 4.79225 12.5603 4.96581 12.6853 5.1466C13.3298 6.07995 13.7077 7.2115 13.7077 8.43209Z" fill="#EAE0D3"/>
<path d="M11.0289 7.25014C11.0289 8.0332 10.394 8.66824 9.61098 8.66824C8.82768 8.66824 8.19287 8.0332 8.19287 7.25014C8.19287 6.46684 8.82768 5.83203 9.61098 5.83203C10.394 5.83203 11.0289 6.46684 11.0289 7.25014Z" fill="#2F373B"/>
<path d="M24.3208 8.18568C23.7386 8.48987 23.125 8.42094 22.6324 8.25754C22.0563 8.06726 21.6464 7.74929 21.6464 7.74929C21.6464 7.74929 19.5729 5.71377 21.1682 4.82765C21.65 4.56053 22.04 4.56166 22.3494 4.69454H22.3501C23.0665 5.00167 23.3542 6.00937 23.3542 6.00937C23.3542 6.00937 23.9316 4.51217 25.2089 4.96551C26.4856 5.41817 25.5825 7.52623 24.3208 8.18568Z" fill="#FF648D"/>
<path d="M22.6324 8.25755C22.0563 8.06726 21.6464 7.74929 21.6464 7.74929C21.6464 7.74929 19.5729 5.71377 21.1682 4.82765C21.65 4.56053 22.04 4.56166 22.3494 4.69454C21.6434 4.65477 21.6211 7.25662 22.6324 8.25755Z" fill="#EA2F69"/>
<path d="M10.6256 6.79744C10.6256 7.04219 10.4272 7.24061 10.1824 7.24061C9.93768 7.24061 9.73926 7.04219 9.73926 6.79744C9.73926 6.55291 9.93768 6.35449 10.1824 6.35449C10.4272 6.35449 10.6256 6.55291 10.6256 6.79744Z" fill="white"/>
<path d="M22.1653 8.87158C22.1653 11.0316 16.2861 17.5899 20.1266 20.3077C21.0867 20.9873 22.1463 21.2088 23.1961 21.159C24.2456 21.209 25.3053 20.9873 26.2655 20.3077C30.1058 17.5899 24.2266 11.0316 24.2266 8.87158" fill="#FF648D"/>
<path d="M23.0372 21.1638C22.0392 21.1855 21.038 20.9529 20.1266 20.3077C16.2861 17.5899 22.1655 11.0314 22.1655 8.87158H22.7956C22.7956 11.0314 20.511 17.5899 22.0035 20.3077C22.3282 20.8989 22.6824 21.1439 23.0372 21.1638Z" fill="#EA2F69"/>
<path d="M23.0371 21.1639C23.0898 21.1635 23.1424 21.1614 23.1951 21.1592C23.1424 21.1657 23.0898 21.1675 23.0371 21.1639Z" fill="#EA2F69"/>
<path d="M23.354 21.1639C23.3014 21.1675 23.2489 21.1657 23.1963 21.1592C23.2489 21.1614 23.3014 21.1635 23.354 21.1639Z" fill="#EA2F69"/>
<path d="M27.0608 8.4911L12.4081 10.9133C12.4081 10.9133 11.8967 10.1377 11.7105 9.10942C11.5448 8.19256 11.6379 7.07458 12.5853 6.12744L27.0608 8.4911Z" fill="#FFD62C"/>
<path d="M27.0608 8.49121L12.4081 10.9134C12.4081 10.9134 11.8967 10.1378 11.7104 9.10953L27.0608 8.49121Z" fill="#FFB92E"/>
<path d="M7.91751 14.222C4.71971 14.222 2.12757 11.6299 2.12757 8.4321C2.12757 7.95457 2.18498 7.49084 2.29436 7.04699C2.40306 6.60336 2.56329 6.17963 2.76759 5.78301L0.375 3.39043L4.29597 3.9145L2.28464 1.4209L6.97218 4.05959C6.97218 4.05959 4.07699 5.12356 4.07699 8.49131C4.07699 11.8591 7.91751 14.222 7.91751 14.222Z" fill="#D6C8B0"/>
</g>
<path d="M90.5951 21.4467C89.7958 21.4467 89.0786 21.2496 88.4436 20.8554C87.8085 20.4503 87.3049 19.9083 86.9326 19.2295C86.5713 18.5397 86.3906 17.7623 86.3906 16.8973C86.3906 16.0323 86.5877 15.255 86.9819 14.5652C87.387 13.8754 87.929 13.3334 88.6078 12.9392C89.2976 12.5341 90.0695 12.3315 90.9236 12.3315C91.7776 12.3315 92.544 12.5341 93.2229 12.9392C93.9017 13.3334 94.4382 13.8754 94.8324 14.5652C95.2375 15.255 95.4401 16.0323 95.4401 16.8973H94.7996C94.7996 17.7623 94.6134 18.5397 94.2412 19.2295C93.8798 19.9083 93.3816 20.4503 92.7466 20.8554C92.1115 21.2496 91.3944 21.4467 90.5951 21.4467ZM90.9236 19.9686C91.482 19.9686 91.9802 19.8372 92.4181 19.5744C92.8561 19.3007 93.201 18.9339 93.4528 18.474C93.7046 18.0032 93.8306 17.4776 93.8306 16.8973C93.8306 16.3061 93.7046 15.7805 93.4528 15.3207C93.201 14.8498 92.8561 14.483 92.4181 14.2203C91.9802 13.9465 91.482 13.8097 90.9236 13.8097C90.3761 13.8097 89.8779 13.9465 89.429 14.2203C88.991 14.483 88.6407 14.8498 88.3779 15.3207C88.1261 15.7805 88.0001 16.3061 88.0001 16.8973C88.0001 17.4776 88.1261 18.0032 88.3779 18.474C88.6407 18.9339 88.991 19.3007 89.429 19.5744C89.8779 19.8372 90.3761 19.9686 90.9236 19.9686ZM94.6025 21.3974C94.3616 21.3974 94.159 21.3208 93.9948 21.1675C93.8415 21.0033 93.7649 20.8007 93.7649 20.5598V18.047L94.0769 16.3061L95.4401 16.8973V20.5598C95.4401 20.8007 95.358 21.0033 95.1937 21.1675C95.0404 21.3208 94.8434 21.3974 94.6025 21.3974Z" fill="black"/>
<path d="M85.1891 21.184C85.0468 21.3153 84.8442 21.381 84.5814 21.381C84.3296 21.3701 84.1325 21.2934 83.9902 21.1511L79.9992 16.8645L83.7602 12.6601C83.9026 12.5068 84.0997 12.4192 84.3515 12.3973C84.6143 12.3754 84.8168 12.4301 84.9592 12.5615C85.1234 12.7148 85.2165 12.89 85.2384 13.0871C85.2603 13.2732 85.2001 13.4429 85.0577 13.5962L82.085 16.7824L85.2384 20.1657C85.3807 20.308 85.4519 20.4777 85.4519 20.6748C85.4519 20.861 85.3643 21.0307 85.1891 21.184ZM78.6853 21.3975C78.4444 21.3975 78.2528 21.3208 78.1105 21.1675C77.9681 21.0033 77.897 20.8007 77.897 20.5599V13.2349C77.897 12.983 77.9681 12.7805 78.1105 12.6272C78.2528 12.4739 78.4444 12.3973 78.6853 12.3973C78.9371 12.3973 79.1397 12.4739 79.293 12.6272C79.4572 12.7805 79.5393 12.983 79.5393 13.2349V15.9776H81.6416V17.5215H79.5393V20.5599C79.5393 20.8007 79.4572 21.0033 79.293 21.1675C79.1397 21.3208 78.9371 21.3975 78.6853 21.3975Z" fill="black"/>
<path d="M71.7525 21.4467C70.8438 21.4467 70.0335 21.2551 69.3218 20.8719C68.6211 20.4777 68.0681 19.9412 67.663 19.2623C67.2689 18.5725 67.0718 17.7842 67.0718 16.8973C67.0718 15.9995 67.2579 15.2112 67.6302 14.5323C68.0134 13.8425 68.539 13.306 69.2069 12.9228C69.8748 12.5286 70.6412 12.3315 71.5062 12.3315C72.3602 12.3315 73.0938 12.5232 73.707 12.9064C74.3201 13.2786 74.7854 13.7987 75.103 14.4666C75.4314 15.1236 75.5957 15.8845 75.5957 16.7495C75.5957 16.9576 75.5245 17.1327 75.3822 17.2751C75.2398 17.4065 75.0592 17.4722 74.8402 17.4722H68.2214V16.1583H74.7909L74.1175 16.6181C74.1066 16.0707 73.9971 15.5834 73.7891 15.1564C73.581 14.7185 73.2854 14.3736 72.9022 14.1217C72.519 13.8699 72.0536 13.744 71.5062 13.744C70.8821 13.744 70.3456 13.8808 69.8967 14.1546C69.4587 14.4283 69.1247 14.806 68.8948 15.2878C68.6649 15.7586 68.5499 16.2951 68.5499 16.8973C68.5499 17.4995 68.6868 18.036 68.9605 18.5069C69.2342 18.9777 69.612 19.3499 70.0937 19.6237C70.5755 19.8974 71.1284 20.0343 71.7525 20.0343C72.092 20.0343 72.4369 19.974 72.7872 19.8536C73.1485 19.7222 73.4387 19.5744 73.6577 19.4102C73.8219 19.2897 73.9971 19.2295 74.1832 19.2295C74.3803 19.2185 74.55 19.2733 74.6924 19.3937C74.8785 19.558 74.9771 19.7386 74.988 19.9357C74.9989 20.1328 74.9114 20.3025 74.7252 20.4449C74.353 20.7405 73.8876 20.9814 73.3292 21.1675C72.7818 21.3536 72.2562 21.4467 71.7525 21.4467Z" fill="black"/>
<path d="M61.0952 12.4131C61.2594 12.4131 61.4073 12.4569 61.5386 12.5445C61.67 12.6321 61.774 12.7689 61.8507 12.9551L65.234 20.2965C65.3325 20.5154 65.3435 20.7125 65.2668 20.8877C65.1902 21.052 65.0588 21.1779 64.8727 21.2655C64.6318 21.375 64.4237 21.4023 64.2486 21.3476C64.0734 21.2928 63.9256 21.156 63.8051 20.937L60.7175 13.9241H61.5551L58.3689 20.937C58.2703 21.145 58.1225 21.2819 57.9254 21.3476C57.7393 21.4023 57.5313 21.375 57.3013 21.2655C57.0933 21.1669 56.9455 21.0355 56.8579 20.8713C56.7812 20.7071 56.7977 20.5154 56.9072 20.2965L60.3069 12.9551C60.4711 12.5937 60.7339 12.4131 61.0952 12.4131Z" fill="black"/>
<path d="M51.5846 21.4467C50.6758 21.4467 49.8655 21.2551 49.1539 20.8719C48.4531 20.4777 47.9002 19.9412 47.4951 19.2623C47.1009 18.5725 46.9038 17.7842 46.9038 16.8973C46.9038 15.9995 47.0899 15.2112 47.4622 14.5323C47.8454 13.8425 48.371 13.306 49.0389 12.9228C49.7068 12.5286 50.4732 12.3315 51.3382 12.3315C52.1922 12.3315 52.9258 12.5232 53.539 12.9064C54.1521 13.2786 54.6175 13.7987 54.935 14.4666C55.2635 15.1236 55.4277 15.8845 55.4277 16.7495C55.4277 16.9576 55.3565 17.1327 55.2142 17.2751C55.0719 17.4065 54.8912 17.4722 54.6722 17.4722H48.0535V16.1583H54.6229L53.9496 16.6181C53.9386 16.0707 53.8291 15.5834 53.6211 15.1564C53.4131 14.7185 53.1174 14.3736 52.7342 14.1217C52.351 13.8699 51.8857 13.744 51.3382 13.744C50.7141 13.744 50.1776 13.8808 49.7287 14.1546C49.2907 14.4283 48.9568 14.806 48.7268 15.2878C48.4969 15.7586 48.3819 16.2951 48.3819 16.8973C48.3819 17.4995 48.5188 18.036 48.7925 18.5069C49.0663 18.9777 49.444 19.3499 49.9258 19.6237C50.4075 19.8974 50.9605 20.0343 51.5846 20.0343C51.924 20.0343 52.2689 19.974 52.6193 19.8536C52.9806 19.7222 53.2707 19.5744 53.4897 19.4102C53.654 19.2897 53.8291 19.2295 54.0153 19.2295C54.2124 19.2185 54.3821 19.2733 54.5244 19.3937C54.7105 19.558 54.8091 19.7386 54.82 19.9357C54.831 20.1328 54.7434 20.3025 54.5573 20.4449C54.185 20.7405 53.7196 20.9814 53.1612 21.1675C52.6138 21.3536 52.0882 21.4467 51.5846 21.4467Z" fill="black"/>
<path d="M35.532 21.3811C35.2255 21.3811 34.9901 21.2497 34.8258 20.9869C34.6616 20.7242 34.6452 20.445 34.7766 20.1493L39.3916 9.12903C39.5559 8.74581 39.8241 8.5542 40.1964 8.5542C40.5905 8.5542 40.8588 8.74581 41.0011 9.12903L45.6326 20.1822C45.7531 20.4888 45.7366 20.768 45.5834 21.0198C45.441 21.2607 45.2111 21.3811 44.8936 21.3811C44.7293 21.3811 44.5706 21.3373 44.4173 21.2497C44.2749 21.1512 44.1709 21.0198 44.1052 20.8556L39.9993 10.7386H40.5249L36.3204 20.8556C36.2437 21.0307 36.1288 21.1621 35.9755 21.2497C35.8331 21.3373 35.6853 21.3811 35.532 21.3811Z" fill="black"/>
<defs>
<clipPath id="clip0_12245_4249">
<rect width="29.6213" height="29.6213" fill="white" transform="translate(0.375 0.189453)"/>
</clipPath>
</defs>
</svg>
